#!OML:ASF G:\JayActor3\Patient Classification 1\Patient 1\Session 5\male.ASF
:FULLY-SPECIFIED
:DEGREES
450
root 21.3836 17.8602 -3.69502 -25.8183 87.8248 -48.2449
lowerback 20.2505 -2.32521 3.39567
upperback 5.77283 -2.00901 -0.235244
thorax -5.18554 -0.844903 -1.70928
lowerneck 4.86258 0.872774 3.42609
upperneck -20.8873 1.84875 -1.10233
head -7.14177 0.920122 -1.09832
rclavicle 8.34896e-015 -1.90833e-014
rhumerus -27.9465 -2.94898 -87.9807
rradius 26.5526
rwrist 4.49744
rhand -22.6294 -8.56214
rfingers 7.12502
rthumb 3.80103 -38.508
lclavicle 8.34896e-015 -1.90833e-014
lhumerus -31.7046 5.31129 83.0873
lradius 28.77
lwrist 23.2438
lhand -19.329 12.186
lfingers 7.12502
lthumb 6.98759 42.0506
rfemur -42.4607 1.25755 23.7423
rtibia 32.6023
rfoot 6.76086 -7.45199
rtoes 4.29519
lfemur -35.823 6.50378 -19.4214
ltibia 47.9664
lfoot 1.94861 -1.79482
ltoes -17.1835
451
root 21.2809 17.8674 -3.70294 -27.8441 87.9369 -50.1624
lowerback 20.3139 -2.40296 3.44518
upperback 5.75827 -2.09374 -0.197705
thorax -5.23915 -0.886722 -1.6746
lowerneck 4.80174 0.874059 3.41027
upperneck -20.807 1.83105 -1.16118
head -7.10438 0.91746 -1.11176
rclavicle 2.14687e-014 -2.0276e-014
rhumerus -27.9548 -2.91704 -87.9661
rradius 26.6224
rwrist 4.38614
rhand -22.6035 -8.58779
rfingers 7.12502
rthumb 3.82599 -38.5332
lclavicle 2.14687e-014 -2.0276e-014
lhumerus -31.8198 5.22879 83.0744
lradius 29.0057
lwrist 23.3026
lhand -19.3168 12.0633
lfingers 7.12502
lthumb 6.99938 41.9276
rfemur -42.5685 1.10746 23.6616
rtibia 32.2624
rfoot 7.34635 -7.47191
rtoes 4.67015
lfemur -34.6543 6.4403 -19.3554
ltibia 48.1378
lfoot 2.19107 -1.57899
ltoes -17.3075
452
root 21.1771 17.8711 -3.71247 -30.3875 88.0434 -52.5833
lowerback 20.3903 -2.48408 3.51327
upperback 5.7437 -2.17805 -0.158373
thorax -5.30007 -0.928382 -1.64812
lowerneck 4.74187 0.873973 3.40279
upperneck -20.7287 1.81274 -1.2202
head -7.06785 0.91384 -1.12665
rclavicle -1.78906e-014 3.57812e-015
rhumerus -27.9658 -2.86851 -87.9517
rradius 26.6771
rwrist 4.2794
rhand -22.6342 -8.58708
rfingers 7.12502
rthumb 3.79633 -38.533
lclavicle -1.78906e-014 3.57812e-015
lhumerus -31.9285 5.15648 83.07
lradius 29.236
lwrist 23.3524
lhand -19.319 11.9455
lfingers 7.12502
lthumb 6.99718 41.8099
rfemur -42.6822 0.953161 23.5867
rtibia 31.9563
rfoot 7.9049 -7.46231
rtoes 4.91848
lfemur -33.4926 6.39124 -19.2894
ltibia 48.2975
lfoot 2.38462 -1.32335
ltoes -17.4075
453
root 21.0723 17.8715 -3.7234 -33.4501 88.1453 -55.5037
lowerback 20.4811 -2.56859 3.59154
upperback 5.73316 -2.26328 -0.11812
thorax -5.36458 -0.970274 -1.62562
lowerneck 4.68912 0.878267 3.38454
upperneck -20.6507 1.8035 -1.25964
head -7.03286 0.913682 -1.1341
rclavicle 3.37934e-014 2.26615e-014
rhumerus -27.9729 -2.81126 -87.9353
rradius 26.7138
rwrist 4.1868
rhand -22.6709 -8.58615
rfingers 7.12502
rthumb 3.76087 -38.5327
lclavicle 3.37934e-014 2.26615e-014
lhumerus -32.0244 5.10301 83.0702
lradius 29.4524
lwrist 23.3979
lhand -19.3473 11.8209
lfingers 7.12502
lthumb 6.96988 41.6861
rfemur -42.7896 0.803328 23.5096
rtibia 31.6789
rfoot 8.41224 -7.45403
rtoes 5.18895
lfemur -32.334 6.34925 -19.2215
ltibia 48.4463
lfoot 2.55617 -1.05607
ltoes -17.5956
454
root 20.9666 17.869 -3.73557 -36.8026 88.238 -58.6986
lowerback 20.5778 -2.65123 3.67101
upperback 5.72702 -2.34508 -0.0790275
thorax -5.42735 -1.01025 -1.60555
lowerneck 4.64766 0.8887 3.3463
upperneck -20.5757 1.80634 -1.27195
head -7.00109 0.918528 -1.13044
rclavicle -2.88238e-014 -7.15625e-015
rhumerus -27.9752 -2.76102 -87.9137
rradius 26.7312
rwrist 4.12554
rhand -22.6989 -8.57952
rfingers 7.12502
rthumb 3.73386 -38.5266
lclavicle -2.88238e-014 -7.15625e-015
lhumerus -32.1082 5.05497 83.079
lradius 29.6594
lwrist 23.4559
lhand -19.4087 11.703
lfingers 7.12502
lthumb 6.91067 41.5702
rfemur -42.8932 0.675678 23.4184
rtibia 31.4265
rfoot 8.85537 -7.46932
rtoes 5.56248
lfemur -31.1831 6.31883 -19.1566
ltibia 48.5787
lfoot 2.72932 -0.776105
ltoes -17.7392
455
root 20.8599 17.8635 -3.7487 -40.3679 88.319 -62.0955
lowerback 20.6716 -2.73066 3.74447
upperback 5.72766 -2.42345 -0.0394913
thorax -5.48088 -1.04815 -1.58237
lowerneck 4.61206 0.904878 3.29307
upperneck -20.504 1.81995 -1.26335
head -6.97161 0.927965 -1.1184
rclavicle -2.52457e-014 -2.18663e-014
rhumerus -27.9657 -2.71206 -87.8858
rradius 26.7323
rwrist 4.09664
rhand -22.7042 -8.57669
rfingers 7.12502
rthumb 3.72871 -38.5238
lclavicle -2.52457e-014 -2.18663e-014
lhumerus -32.1754 5.01668 83.0972
lradius 29.8566
lwrist 23.5257
lhand -19.5188 11.5633
lfingers 7.12502
lthumb 6.80435 41.434
rfemur -42.9952 0.572371 23.316
rtibia 31.1964
rfoot 9.23413 -7.52236
rtoes 6.06475
lfemur -30.0456 6.30122 -19.0921
ltibia 48.6862
lfoot 2.93547 -0.51397
ltoes -17.8368
456
root 20.7529 17.8559 -3.7626 -43.6093 88.3851 -65.1537
lowerback 20.7618 -2.79875 3.80643
upperback 5.73569 -2.48965 -0.00623629
thorax -5.52368 -1.0797 -1.56253
lowerneck 4.57997 0.917485 3.24105
upperneck -20.4303 1.83147 -1.24106
head -6.94239 0.935092 -1.10198
rclavicle -1.92821e-014 -4.37326e-014
rhumerus -27.9547 -2.68471 -87.8538
rradius 26.7247
rwrist 4.10186
rhand -22.7015 -8.57945
rfingers 7.12502
rthumb 3.73134 -38.5265
lclavicle -1.92821e-014 -4.37326e-014
lhumerus -32.2287 4.96734 83.125
lradius 30.0457
lwrist 23.6093
lhand -19.6764 11.3886
lfingers 7.12502
lthumb 6.65225 41.2641
rfemur -43.0898 0.516188 23.1871
rtibia 30.9882
rfoot 9.53184 -7.6407
rtoes 6.80168
lfemur -28.9069 6.30498 -19.0331
ltibia 48.7482
lfoot 3.19211 -0.30955
ltoes -17.8305
